<svg xmlns="http://www.w3.org/2000/svg" height="1200" width="1600" version="1.1" xmlns:xlink="http://www.w3.org/1999/xlink" xmlns:svgjs="http://svgjs.com/svgjs"><rect fill="#effaff00" width="1600" height="1200"></rect><g><path d="M1391.64 426.92C1345.13 309.42 1247.82 230.44 1124.58 201.56 997.76 171.85 866.44 173.9 737.77 189.26 617.1 203.71 480.55 216.2 372.38 275.11 288.27 321 214.93 399.77 193.11 495.14 168.73 601.99 204.17 715.18 267.27 802.26 299.34 846.41 337.55 885.74 386.41 911.05 433.33 935.43 483.93 948.23 536.59 951.2 590.78 954.17 646.19 944.24 696.8 925.28 747.1 906.33 794.32 881.34 843.39 860.03 870.33 849.17 897.99 840.06 926.67 835.14 945.32 833.4 963.86 833.7 982.5 835.75 1042.63 845.28 1101.43 865.87 1162.89 864.85 1237.67 863.62 1299.45 830.22 1343.9 771.11 1415.2 675.95 1435.38 537.25 1391.64 426.92Z" fill="#def7f3" opacity="1" stroke-width="2" stroke="none"></path></g><g><path d="M651.47 404.18C677.62 357.53 679.27 310.88 655.71 286.85 602.47 237.62 558.65 301.23 558.65 301.23 558.65 301.23 514.83 237.62 461.58 286.85 421.3 328.55 454.52 434.8 558.65 496.76 593.04 476.27 619.9 451.3 638.51 424.91" fill="#abeded" opacity="1" stroke-width="2" stroke="none"></path><path d="M651.47 404.18C677.62 357.53 679.27 310.88 655.71 286.85 602.47 237.62 558.65 301.23 558.65 301.23 558.65 301.23 514.83 237.62 461.58 286.85 421.3 328.55 454.52 434.8 558.65 496.76 593.04 476.27 619.9 451.3 638.51 424.91" stroke="#333333" stroke-width="2" stroke-linecap="round" stroke-linejoin="round" opacity="1" fill="none"></path><path d="M603.41 366.95H573.72V337.27H543.33V366.95H513.65V397.35H543.33V427.03H573.72V397.35H603.41V366.95Z" fill="#ffffff" stroke="#333333" stroke-width="2" stroke-linecap="round" stroke-linejoin="round" opacity="1"></path></g><g><path d="M1069.72 884.94H902.3C894.11 884.94 887.41 879.61 887.41 873.11 887.41 866.61 894.11 861.28 902.3 861.28H1069.72C1077.9 861.28 1084.61 866.61 1084.61 873.11 1084.48 879.72 1077.77 884.94 1069.72 884.94Z" fill="#78c2e0" stroke="#333333" stroke-width="2" stroke-linecap="round" stroke-linejoin="round" opacity="1"></path><path d="M1059.79 1011.47H912.49C912.49 998.46 925.91 988.01 942.01 988.01H1030.28C1046.38 987.8 1059.79 998.35 1059.79 1011.47Z" fill="#78c2e0" stroke="#333333" stroke-width="2" stroke-linecap="round" stroke-linejoin="round" opacity="1"></path><path d="M986.14 925.34V884.94" stroke="#333333" stroke-width="2" stroke-linecap="round" stroke-linejoin="round" opacity="1" fill="none"></path><path d="M986.14 947.19V936.42" stroke="#333333" stroke-width="2" stroke-linecap="round" stroke-linejoin="round" opacity="1" fill="none"></path><path d="M986.14 987.8V959.23" stroke="#333333" stroke-width="2" stroke-linecap="round" stroke-linejoin="round" opacity="1" fill="none"></path><path d="M1021.29 884.94V901.03H1070.26" stroke="#333333" stroke-width="2" stroke-linecap="round" stroke-linejoin="round" opacity="1" fill="none"></path><path d="M1069.72 861.28C1101.78 861.28 1127.81 840.7 1127.81 815.12V770.03C1127.81 752.44 1109.83 738.16 1087.7 738.16H1086.62" stroke="#333333" stroke-width="2" stroke-linecap="round" stroke-linejoin="round" opacity="1" fill="none"></path><path d="M1092.39 681.13L1095.74 648.52H963.2L946.83 811.71H1079.24L1091.05 694.03" fill="#78c2e0" opacity="1" stroke-width="2" stroke="none"></path><path d="M1092.39 681.13L1095.74 648.52H963.2L946.83 811.71H1079.24L1091.05 694.03" stroke="#333333" stroke-width="2" stroke-linecap="round" stroke-linejoin="round" opacity="1" fill="none"></path></g><g><path d="M1133.36 390.87C1168.88 390.87 1197.68 362.08 1197.68 326.55 1197.68 291.03 1168.88 262.23 1133.36 262.23 1097.84 262.23 1069.04 291.03 1069.04 326.55 1069.04 362.08 1097.84 390.87 1133.36 390.87Z" fill="#46adcf" stroke="#333333" stroke-width="2" stroke-linecap="round" stroke-linejoin="round" opacity="1"></path><path d="M1096.8 364.08C1096.8 346.43 1113.18 332.12 1133.37 332.12 1153.55 332.12 1169.92 346.42 1169.92 364.08" fill="#46adcf" opacity="1" stroke-width="2" stroke="none"></path><path d="M1096.8 364.08C1096.8 346.43 1113.18 332.12 1133.37 332.12 1153.55 332.12 1169.92 346.42 1169.92 364.08" stroke="#333333" stroke-width="2" stroke-linecap="round" stroke-linejoin="round" opacity="1" fill="none"></path><path d="M1118.35 295.41V312.81" stroke="#333333" stroke-width="2" stroke-linecap="round" stroke-linejoin="round" opacity="1" fill="none"></path><path d="M1148.37 295.41V312.81" stroke="#333333" stroke-width="2" stroke-linecap="round" stroke-linejoin="round" opacity="1" fill="none"></path></g><g><path d="M1066.55 804.3V778.64L980.14 760.09C980.04 760.09 870.38 778.74 870.38 778.74 845.02 779.54 824.87 795.98 816.75 820.14L755.9 1010.6H855.04L899.75 869.16 944.76 1010.6H1043.9L996.48 862.64H1008.21C1040.39 862.64 1066.55 836.58 1066.55 804.3Z" fill="#46686d" stroke="#333333" stroke-width="2" stroke-linecap="round" stroke-linejoin="round" opacity="1"></path><path d="M996.18 606.02H896.74 887.72 885.92C859.15 606.52 833.59 617.15 814.44 635.79L757.6 691.32C754 695.13 748.88 700.45 744.67 706.16 740.46 711.87 737.15 718.09 737.15 723.5 737.15 740.44 750.89 754.08 767.73 754.08H851.33 870.28V778.74L1066.45 778.64V676.39C1066.55 637.59 1034.98 606.02 996.18 606.02Z" fill="#ffffff" stroke="#333333" stroke-width="2" stroke-linecap="round" stroke-linejoin="round" opacity="1"></path><path d="M965.31 606.02H947.06" stroke="#333333" stroke-width="2" stroke-linecap="round" stroke-linejoin="round" opacity="1" fill="none"></path><path d="M1013.12 623.56C1009.72 620.65 1006.01 618.05 1002.1 615.84Z" fill="#ffffff" opacity="1" stroke-width="2" stroke="none"></path><path d="M1013.12 623.56C1009.72 620.65 1006.01 618.05 1002.1 615.84" stroke="#333333" stroke-width="2" stroke-linecap="round" stroke-linejoin="round" opacity="1" fill="none"></path><path d="M897.44 862.74H873.99" stroke="#333333" stroke-width="2" stroke-linecap="round" stroke-linejoin="round" opacity="1" fill="none"></path><path d="M1021.54 631.98C1032.67 644.91 1039.29 661.75 1039.29 680.1 1039.29 721 1006.11 754.18 965.21 754.18H851.43V692.93H913.28 963.6L963.7 692.83C954.58 692.83 947.26 685.51 947.26 676.39" stroke="#333333" stroke-width="2" stroke-linecap="round" stroke-linejoin="round" opacity="1" fill="none"></path><path d="M1043.8 1010.7H944.66L899.55 869.06" stroke="#333333" stroke-width="2" stroke-linecap="round" stroke-linejoin="round" opacity="1" fill="none"></path><path d="M899.65 869.06L890.63 840.59C880.5 810.11 903.16 778.74 935.23 778.74 955.48 778.74 973.53 791.77 979.84 811.01L996.38 862.84" stroke="#333333" stroke-width="2" stroke-linecap="round" stroke-linejoin="round" opacity="1" fill="none"></path><path d="M814.64 692.93H789.88" stroke="#333333" stroke-width="2" stroke-linecap="round" stroke-linejoin="round" opacity="1" fill="none"></path><path d="M833.09 663.56V645.71" stroke="#333333" stroke-width="2" stroke-linecap="round" stroke-linejoin="round" opacity="1" fill="none"></path><path d="M913.28 692.93C908.37 670.17 888.12 653.23 863.96 653.23 839.8 653.23 819.55 670.27 814.64 692.93H851.33 913.28Z" fill="#46686d" stroke="#333333" stroke-width="2" stroke-linecap="round" stroke-linejoin="round" opacity="1"></path></g><g><path d="M916.86 737.97H808.55V754.81H933.7C933.7 745.5 926.18 737.97 916.86 737.97Z" fill="#abeded" stroke="#333333" stroke-width="2" stroke-linecap="round" stroke-linejoin="round" opacity="1"></path><path d="M879.99 754.81H739.66L698.96 645.35H839.17L879.99 754.81Z" fill="#abeded" stroke="#333333" stroke-width="2" stroke-linecap="round" stroke-linejoin="round" opacity="1"></path><path d="M787.12 709.26C793.46 709.26 798.6 704.12 798.6 697.78 798.6 691.44 793.46 686.3 787.12 686.3 780.78 686.3 775.63 691.44 775.63 697.78 775.63 704.12 780.78 709.26 787.12 709.26Z" fill="#ffffff" stroke="#333333" stroke-width="2" stroke-linecap="round" stroke-linejoin="round" opacity="1"></path></g><g><path d="M572.5 652.14C572.4 652.14 572.4 652.14 572.4 652.05L573 640.44C573 640.35 573 640.35 573.1 640.35L654.2 643.62C654.3 643.62 654.3 643.62 654.3 643.71L653.7 655.31C653.7 655.4 653.7 655.4 653.6 655.4L572.5 652.14Z" fill="#78c2e0" stroke="#333333" stroke-width="2" stroke-linecap="round" stroke-linejoin="round" opacity="1"></path><path d="M558.6 649.33C558.6 649.24 558.6 649.24 558.7 649.24L660.8 649.06H660.9C660.9 649.06 660.9 649.06 660.9 649.15V662.92C660.9 663.01 660.9 663.01 660.8 663.01L558.7 663.2H558.6C558.6 663.2 558.6 663.2 558.6 663.11V649.33Z" fill="#78c2e0" stroke="#333333" stroke-width="2" stroke-linecap="round" stroke-linejoin="round" opacity="1"></path><path d="M554.7 661.11C554.7 661.02 554.7 661.02 554.8 661.02L662.8 660.84C662.9 660.84 662.9 660.84 662.9 660.93V672.53C662.9 672.62 662.9 672.62 662.8 672.62L554.8 672.8C554.7 672.8 554.7 672.8 554.7 672.71V661.11Z" fill="#78c2e0" stroke="#333333" stroke-width="2" stroke-linecap="round" stroke-linejoin="round" opacity="1"></path><path d="M565 673.08C565 672.99 565 672.99 565.1 672.99L664.1 668.91C664.2 668.91 664.2 668.91 664.2 669L664.8 680.6C664.8 680.6 664.8 680.69 664.7 680.69 626 688.4 599.7 691.48 565.7 684.77 565.7 684.77 565.6 684.77 565.6 684.68L565 673.08Z" fill="#3da898" stroke="#333333" stroke-width="2" stroke-linecap="round" stroke-linejoin="round" opacity="1"></path><path d="M568.7 696.64C568.7 696.55 568.7 696.55 568.8 696.55 610 690.75 657.7 686.67 674.4 692.2 674.4 692.2 674.5 692.2 674.5 692.29L675.1 703.99C675.1 704.08 675.1 704.08 675 704.08L569.4 708.43C569.3 708.43 569.3 708.43 569.3 708.34L568.7 696.64Z" fill="#3da898" stroke="#333333" stroke-width="2" stroke-linecap="round" stroke-linejoin="round" opacity="1"></path><path d="M561.2 685.13C561.2 685.04 561.2 685.04 561.3 685.04L678.5 680.24C678.6 680.24 678.6 680.24 678.6 680.33L679.2 691.93C679.2 692.02 679.2 692.02 679.1 692.02L561.9 696.83C561.8 696.83 561.8 696.83 561.8 696.74L561.2 685.13Z" fill="#3da898" stroke="#333333" stroke-width="2" stroke-linecap="round" stroke-linejoin="round" opacity="1"></path><path d="M568.5 730.73C568.5 730.64 568.5 730.64 568.5 730.73L664.8 730.64C664.9 730.64 664.9 730.64 664.9 730.73V748.59C664.9 748.68 664.9 748.68 664.8 748.68H568.6C568.5 748.68 568.5 748.68 568.5 748.59V730.73 730.73Z" fill="#3da898" stroke="#333333" stroke-width="2" stroke-linecap="round" stroke-linejoin="round" opacity="1"></path><path d="M563.6 720.39C563.6 720.3 563.6 720.3 563.7 720.3H669.6C669.7 720.3 669.7 720.3 669.7 720.39V736.71C669.7 736.8 669.7 736.8 669.6 736.8H563.7C563.6 736.8 563.6 736.8 563.6 736.71V720.39Z" fill="#3da898" stroke="#333333" stroke-width="2" stroke-linecap="round" stroke-linejoin="round" opacity="1"></path><path d="M552.2 713.23C552.2 713.23 552.3 713.14 552.2 713.23L558.2 713.14C594 709.61 626.1 710.15 669.5 713.14 669.6 713.14 669.6 713.14 669.6 713.23V724.84C669.6 724.93 669.6 724.93 669.5 724.93H552.3C552.2 724.93 552.2 724.93 552.2 724.84V713.23 713.23Z" fill="#3da898" stroke="#333333" stroke-width="2" stroke-linecap="round" stroke-linejoin="round" opacity="1"></path><path d="M557.9 701.45C557.9 701.45 558 701.36 557.9 701.45L678.3 701.36C678.4 701.36 678.4 701.36 678.4 701.45V713.05C678.4 713.14 678.4 713.14 678.3 713.14H558C557.9 713.14 557.9 713.14 557.9 713.05V701.45Z" fill="#3da898" stroke="#333333" stroke-width="2" stroke-linecap="round" stroke-linejoin="round" opacity="1"></path><path d="M557.9 744.05C557.9 744.05 558 743.96 557.9 744.05L675.3 743.96C675.4 743.96 675.4 743.96 675.4 744.05V755.66C675.4 755.75 675.4 755.75 675.3 755.75H558C557.9 755.75 557.9 755.75 557.9 755.66V744.05Z" fill="#3da898" stroke="#333333" stroke-width="2" stroke-linecap="round" stroke-linejoin="round" opacity="1"></path></g><g><path d="M1136.54 754.91H463.46V778.05H1136.54V754.91Z" fill="#46adcf" stroke="#333333" stroke-width="2" stroke-linecap="round" stroke-linejoin="round" opacity="1"></path><path d="M516.59 778.05L438.93 1010.95" stroke="#333333" stroke-width="2" stroke-linecap="round" stroke-linejoin="round" opacity="1" fill="none"></path><path d="M1083.3 778.05L1161.07 1010.95" stroke="#333333" stroke-width="2" stroke-linecap="round" stroke-linejoin="round" opacity="1" fill="none"></path></g><g><path d="M1306.5 775.6C1320.58 775.6 1332 764.18 1332 750.1 1332 736.02 1320.58 724.6 1306.5 724.6 1292.42 724.6 1281 736.02 1281 750.1 1281 764.18 1292.42 775.6 1306.5 775.6Z" fill="#3da898" stroke="#333333" stroke-width="2" stroke-linecap="round" stroke-linejoin="round" opacity="1"></path><path d="M1241.9 1010.6C1241.9 1010.7 1241.9 1010.7 1241.9 1010.6L1167 1010.7C1166.9 1010.7 1166.9 1010.7 1166.9 1010.6L1151.5 897.2V897.1C1151.5 897.1 1151.5 897.1 1151.6 897.1H1257.1 1257.2V897.2L1241.9 1010.6Z" fill="#46686d" stroke="#333333" stroke-width="2" stroke-linecap="round" stroke-linejoin="round" opacity="1"></path><path d="M1204.5 858.1V729.6C1204.5 701.4 1227.3 678.6 1255.5 678.6 1283.7 678.6 1306.5 701.4 1306.5 729.6V730.1" stroke="#333333" stroke-width="2" stroke-linecap="round" stroke-linejoin="round" opacity="1" fill="none"></path><path d="M1204.5 897.1V872.2" stroke="#333333" stroke-width="2" stroke-linecap="round" stroke-linejoin="round" opacity="1" fill="none"></path><path d="M1306.5 729.6V743.7" stroke="#333333" stroke-width="2" stroke-linecap="round" stroke-linejoin="round" opacity="1" fill="none"></path><path d="M1254.7 787.1C1254.7 787 1254.7 787 1254.7 787.1 1254.7 787 1254.6 787 1254.6 787H1231.9C1216.8 787 1204.5 799.3 1204.4 814.4V814.5C1204.4 814.5 1204.4 814.5 1204.5 814.5H1227.2C1242.4 814.4 1254.7 802.2 1254.7 787.1Z" fill="#3da898" stroke="#333333" stroke-width="2" stroke-linecap="round" stroke-linejoin="round" opacity="1"></path></g><g><path d="M301.81 919.01V998.93C301.81 998.99 301.81 998.99 301.74 998.99H281.75C281.68 998.99 281.68 998.99 281.68 999.05V1010.69C281.68 1010.75 281.68 1010.75 281.75 1010.75H514.62C514.68 1010.75 514.68 1010.75 514.68 1010.69V999.05C514.68 998.99 514.68 998.99 514.62 998.99H494.62C494.56 998.99 494.56 998.99 494.56 998.93V889.17C494.56 888.31 494.49 887.46 494.49 886.61 494.56 886.42 494.56 886.24 494.56 886.06 494.56 858.59 461.06 842.57 440.04 810.4 424.87 787.13 424.87 766.3 440.04 743.03 461.06 710.87 494.56 694.85 494.56 667.38 494.56 667.19 494.56 667.01 494.49 666.83 494.49 665.98 494.56 665.12 494.56 664.27V584.29 572.17 554.5C494.56 554.44 494.56 554.44 494.62 554.44H514.62C514.68 554.44 514.68 554.44 514.68 554.38V542.75C514.68 542.69 514.68 542.69 514.62 542.69H281.75C281.68 542.69 281.68 542.69 281.68 542.75V554.38C281.68 554.44 281.68 554.44 281.75 554.44H301.74C301.81 554.44 301.81 554.44 301.81 554.5V664.21C301.81 664.21 301.81 663.84 301.81 667.38 301.81 694.85 335.3 710.87 356.33 743.03 371.5 766.3 371.5 787.13 356.33 810.4 335.3 842.57 301.81 858.59 301.81 886.06 301.81 886.24 301.81 886.42 301.87 886.61 301.87 887.46 301.81 888.31 301.81 889.17V910.12" fill="#3da898" opacity="1" stroke-width="2" stroke="none"></path><path d="M301.81 919.01V998.93C301.81 998.99 301.81 998.99 301.74 998.99H281.75C281.68 998.99 281.68 998.99 281.68 999.05V1010.69C281.68 1010.75 281.68 1010.75 281.75 1010.75H514.62C514.68 1010.75 514.68 1010.75 514.68 1010.69V999.05C514.68 998.99 514.68 998.99 514.62 998.99H494.62C494.56 998.99 494.56 998.99 494.56 998.93V889.17C494.56 888.31 494.49 887.46 494.49 886.61 494.56 886.42 494.56 886.24 494.56 886.06 494.56 858.59 461.06 842.57 440.04 810.4 424.87 787.13 424.87 766.3 440.04 743.03 461.06 710.87 494.56 694.85 494.56 667.38 494.56 667.19 494.56 667.01 494.49 666.83 494.49 665.98 494.56 665.12 494.56 664.27V584.29 572.17 554.5C494.56 554.44 494.56 554.44 494.62 554.44H514.62C514.68 554.44 514.68 554.44 514.68 554.38V542.75C514.68 542.69 514.68 542.69 514.62 542.69H281.75C281.68 542.69 281.68 542.69 281.68 542.75V554.38C281.68 554.44 281.68 554.44 281.75 554.44H301.74C301.81 554.44 301.81 554.44 301.81 554.5V664.21C301.81 664.21 301.81 663.84 301.81 667.38 301.81 694.85 335.3 710.87 356.33 743.03 371.5 766.3 371.5 787.13 356.33 810.4 335.3 842.57 301.81 858.59 301.81 886.06 301.81 886.24 301.81 886.42 301.87 886.61 301.87 887.46 301.81 888.31 301.81 889.17V910.12" stroke="#333333" stroke-width="2" stroke-linecap="round" stroke-linejoin="round" opacity="1" fill="none"></path><path d="M398.18 764.23V827.7 831.05 861.27" stroke="#333333" stroke-width="2" stroke-linecap="round" stroke-linejoin="round" opacity="1" fill="none"></path><path d="M452.32 853.83C438.56 875.4 390.47 858.53 366.04 854.63 335.43 849.69 322.9 871.93 322.83 872.05 322.83 872.05 317.82 877.9 317.82 900.62 317.82 923.34 317.82 984.5 317.82 984.5H478.55V895.2C478.55 868.39 452.32 853.83 452.32 853.83Z" fill="#46686d" stroke="#333333" stroke-width="2" stroke-linecap="round" stroke-linejoin="round" opacity="1"></path><path d="M402.17 667.68H451.03C463.96 667.68 471.28 680.78 463.51 689.91 463.51 689.91 398.18 754.79 398.18 778.73 398.18 754.54 332.86 689.91 332.86 689.91 325.08 680.78 332.41 667.68 345.33 667.68H360.12" fill="#46686d" opacity="1" stroke-width="2" stroke="none"></path><path d="M402.17 667.68H451.03C463.96 667.68 471.28 680.78 463.51 689.91 463.51 689.91 398.18 754.79 398.18 778.73 398.18 754.54 332.86 689.91 332.86 689.91 325.08 680.78 332.41 667.68 345.33 667.68H360.12" stroke="#333333" stroke-width="2" stroke-linecap="round" stroke-linejoin="round" opacity="1" fill="none"></path><path d="M371.05 667.68H393.62" stroke="#333333" stroke-width="2" stroke-linecap="round" stroke-linejoin="round" opacity="1" fill="none"></path><path d="M370.09 855.36C370.09 855.36 408.21 832.33 452.32 853.9" stroke="#333333" stroke-width="2" stroke-linecap="round" stroke-linejoin="round" opacity="1" fill="none"></path><path d="M301.81 554.38H494.56" stroke="#333333" stroke-width="2" stroke-linecap="round" stroke-linejoin="round" opacity="1" fill="none"></path><path d="M301.81 998.93H494.56" stroke="#333333" stroke-width="2" stroke-linecap="round" stroke-linejoin="round" opacity="1" fill="none"></path></g><g><path d="M496.6 869.38C496.5 869.38 496.5 869.38 496.5 869.28L496.9 857.55C496.9 857.46 496.9 857.46 497 857.46L565.6 859.2C565.7 859.2 565.7 859.2 565.7 859.29L565.3 871.03C565.3 871.12 565.3 871.12 565.2 871.12L496.6 869.38Z" fill="#78c2e0" stroke="#333333" stroke-width="2" stroke-linecap="round" stroke-linejoin="round" opacity="1"></path><path d="M454.9 868.37C454.9 868.28 454.9 868.28 455 868.28L572.5 863.88C572.6 863.88 572.6 863.88 572.6 863.97L573.1 875.7C573.1 875.7 573.1 875.79 573 875.79 527.1 885.05 490.5 887.53 455.5 880.19 455.5 880.19 455.4 880.19 455.4 880.1L454.9 868.37Z" fill="#78c2e0" stroke="#333333" stroke-width="2" stroke-linecap="round" stroke-linejoin="round" opacity="1"></path><path d="M456 890.55C456 890.46 456 890.46 456.1 890.46L573.6 883.86H573.7C573.7 883.86 573.7 883.86 573.7 883.95L574.2 901.55C574.2 901.65 574.2 901.65 574.1 901.65L456.6 908.25H456.5C456.5 908.25 456.5 908.25 456.5 908.16L456 890.55Z" fill="#78c2e0" stroke="#333333" stroke-width="2" stroke-linecap="round" stroke-linejoin="round" opacity="1"></path><path d="M446.4 880.65C446.4 880.56 446.4 880.56 446.5 880.56L582.1 875.43C582.2 875.43 582.2 875.43 582.2 875.52L582.7 887.25C582.7 887.34 582.7 887.34 582.6 887.34L447 892.48C446.9 892.48 446.9 892.48 446.9 892.39L446.4 880.65Z" fill="#78c2e0" stroke="#333333" stroke-width="2" stroke-linecap="round" stroke-linejoin="round" opacity="1"></path><path d="M446.4 898.44C446.4 898.35 446.4 898.35 446.5 898.35H582.2C582.3 898.35 582.3 898.35 582.3 898.44V914.66C582.3 914.76 582.3 914.76 582.2 914.76H446.5C446.4 914.76 446.4 914.76 446.4 914.66V898.44Z" fill="#78c2e0" stroke="#333333" stroke-width="2" stroke-linecap="round" stroke-linejoin="round" opacity="1"></path><path d="M596.2 964.08V1010.65C596.2 1010.74 596.2 1010.74 596.1 1010.74H432.8C432.7 1010.74 432.7 1010.74 432.7 1010.65V909.44C432.7 909.35 432.7 909.35 432.8 909.35H596.1C596.2 909.35 596.2 909.35 596.2 909.44V952.34" fill="#78c2e0" opacity="1" stroke-width="2" stroke="none"></path><path d="M596.2 964.08V1010.65C596.2 1010.74 596.2 1010.74 596.1 1010.74H432.8C432.7 1010.74 432.7 1010.74 432.7 1010.65V909.44C432.7 909.35 432.7 909.35 432.8 909.35H596.1C596.2 909.35 596.2 909.35 596.2 909.44V952.34" stroke="#333333" stroke-width="2" stroke-linecap="round" stroke-linejoin="round" opacity="1" fill="none"></path><path d="M539.9 939.6H488.9C484.7 939.6 481.3 936.48 481.3 932.63 481.3 928.78 484.7 925.67 488.9 925.67H539.9C544.1 925.67 547.5 928.78 547.5 932.63 547.5 936.48 544.1 939.6 539.9 939.6Z" fill="#46686d" stroke="#333333" stroke-width="2" stroke-linecap="round" stroke-linejoin="round" opacity="1"></path></g></svg>